<svg width="16" height="15" viewBox="0 0 16 15" fill="none" xmlns="http://www.w3.org/2000/svg">
<path d="M15.6291 0L8.76367 5.07994L10.0404 2.08619L15.6291 0Z" fill="#E17726"/>
<path d="M0.386906 0.00598145L5.96072 2.08654L7.17297 5.11954L0.386906 0.00598145ZM12.8662 10.8036L15.9007 10.8614L14.8402 14.464L11.1375 13.4445L12.8662 10.8036ZM3.13366 10.8036L4.85597 13.4445L1.15953 14.464L0.105469 10.8614L3.13366 10.8036Z" fill="#E27625"/>
<path d="M7.00807 4.34699L7.13207 8.35218L3.42139 8.18337L4.47689 6.59099L4.49026 6.57568L7.00807 4.34699ZM8.95326 4.30231L11.5095 6.57581L11.5228 6.59106L12.5783 8.18343L8.86838 8.35218L8.95326 4.30231ZM4.96457 10.8152L6.9907 12.3939L4.63707 13.5302L4.96457 10.8152ZM11.0356 10.815L11.3563 13.5303L9.0092 12.3938L11.0356 10.815Z" fill="#E27625"/>
<path d="M9.06122 12.2451L11.4429 13.3984L9.22747 14.4512L9.25047 13.7554L9.06122 12.2451ZM6.93828 12.2456L6.75647 13.744L6.77141 14.4504L4.55078 13.3984L6.93828 12.2456Z" fill="#D5BFB2"/>
<path d="M6.25047 8.87494L6.87284 10.1829L4.75391 9.56219L6.25047 8.87494ZM9.74953 8.87506L11.2532 9.56219L9.12728 10.1828L9.74953 8.87506Z" fill="#233447"/>
<path d="M5.12655 10.8019L4.78405 13.6169L2.94824 10.8634L5.12655 10.8019ZM10.8734 10.8019L13.0518 10.8634L11.2091 13.617L10.8734 10.8019ZM12.6319 8.02417L11.0466 9.63986L9.8243 9.0813L9.23911 10.3115L8.85549 8.19598L12.6319 8.02417ZM3.36712 8.02417L7.1443 8.19598L6.76062 10.3115L6.1753 9.08148L4.95949 9.63992L3.36712 8.02417Z" fill="#CC6228"/>
<path d="M3.26025 7.69264L5.05388 9.5127L5.116 11.3095L3.26025 7.69264ZM12.7413 7.68939L10.8822 11.3127L10.9522 9.5127L12.7413 7.68939ZM7.05657 7.80352L7.12875 8.25789L7.30713 9.38983L7.19244 12.8664L6.65025 10.0736L6.65007 10.0447L7.05657 7.80352ZM8.94225 7.7972L9.34982 10.0447L9.34963 10.0736L8.80607 12.8734L8.78457 12.1731L8.69975 9.3692L8.94225 7.7972Z" fill="#E27525"/>
<path d="M11.112 9.44037L11.0513 11.0015L9.15915 12.4757L8.77665 12.2054L9.2054 9.99699L11.112 9.44037ZM4.89502 9.44037L6.79496 9.99699L7.22371 12.2054L6.84121 12.4757L4.94902 11.0014L4.89502 9.44037Z" fill="#F5841F"/>
<path d="M4.18848 13.0536L6.60923 14.2007L6.59898 13.7108L6.80154 13.533H9.19741L9.40729 13.7102L9.39179 14.1997L11.7972 13.0565L10.6267 14.0238L9.21141 14.9958H6.7821L5.36773 14.0198L4.18848 13.0536Z" fill="#C0AC9D"/>
<path d="M8.88762 12.0924L9.22987 12.3342L9.43043 13.9345L9.14018 13.6894H6.86043L6.57568 13.9394L6.76968 12.3343L7.11206 12.0924H8.88762Z" fill="#161616"/>
<path d="M15.1759 0.140625L16 2.61294L15.4853 5.11275L15.8518 5.39544L15.3559 5.77381L15.7286 6.06169L15.2351 6.51113L15.5381 6.73056L14.7339 7.66969L11.4358 6.70937L11.4073 6.69406L9.03056 4.68919L15.1759 0.140625ZM0.824125 0.140625L6.9695 4.68919L4.59275 6.69406L4.56419 6.70937L1.26606 7.66969L0.461937 6.73056L0.764687 6.51131L0.271437 6.06169L0.643438 5.77413L0.140062 5.39469L0.520375 5.11181L0 2.61306L0.824125 0.140625Z" fill="#763E1A"/>
<path d="M11.2746 6.49939L14.7692 7.51683L15.9045 11.016H12.9092L10.8455 11.042L12.3464 8.11646L11.2746 6.49939ZM4.72561 6.49939L3.65368 8.11646L5.15474 11.042L3.09193 11.016H0.102051L1.23099 7.51689L4.72561 6.49939ZM10.2116 2.06952L9.23418 4.70946L9.02674 8.27571L8.94737 9.39352L8.94105 12.249H7.05911L7.05299 9.39889L6.97336 8.27477L6.76586 4.70946L5.78855 2.06952H10.2116Z" fill="#F5841F"/>
</svg>
