<svg width="14" height="20" viewBox="0 0 14 20" fill="none" xmlns="http://www.w3.org/2000/svg">
<path d="M11.0638 0.0850028C11.1861 0.155926 11.2808 0.26624 11.3323 0.397925C11.3838 0.529609 11.3892 0.674879 11.3475 0.810003L9.09626 8.125H13.25C13.3721 8.12495 13.4915 8.16065 13.5935 8.22769C13.6955 8.29473 13.7757 8.39017 13.824 8.50224C13.8724 8.61431 13.887 8.7381 13.8658 8.85832C13.8446 8.97854 13.7887 9.08993 13.705 9.17875L3.70501 19.8038C3.60825 19.9066 3.47949 19.9737 3.33972 19.9941C3.19995 20.0144 3.05742 19.9868 2.93534 19.9158C2.81327 19.8447 2.71886 19.7344 2.66749 19.6029C2.61613 19.4713 2.61085 19.3262 2.65251 19.1912L4.90376 11.875H0.750005C0.627936 11.8751 0.508525 11.8394 0.406513 11.7723C0.3045 11.7053 0.224352 11.6098 0.175962 11.4978C0.127572 11.3857 0.113058 11.2619 0.134214 11.1417C0.155369 11.0215 0.211266 10.9101 0.295005 10.8213L10.295 0.196253C10.3916 0.0935017 10.5202 0.0264636 10.6598 0.00603855C10.7993 -0.0143865 10.9417 0.0130027 11.0638 0.0837528V0.0850028Z" fill="#FAC153"/>
</svg>
