<svg width="18" height="20" viewBox="0 0 18 20" fill="none" xmlns="http://www.w3.org/2000/svg">
<path d="M3.137 0C2.30502 0 1.50711 0.330504 0.918806 0.918806C0.330504 1.50711 0 2.30502 0 3.137V14.363C0 15.195 0.330504 15.9929 0.918806 16.5812C1.50711 17.1695 2.30502 17.5 3.137 17.5H11.863C12.695 17.5 13.4929 17.1695 14.0812 16.5812C14.6695 15.9929 15 15.195 15 14.363V3.137C15 2.30502 14.6695 1.50711 14.0812 0.918806C13.4929 0.330504 12.695 0 11.863 0H3.137ZM4.75 3H10.25C11.216 3 12 3.784 12 4.75V5.75C12 6.21413 11.8156 6.65925 11.4874 6.98744C11.1592 7.31563 10.7141 7.5 10.25 7.5H4.75C4.28587 7.5 3.84075 7.31563 3.51256 6.98744C3.18437 6.65925 3 6.21413 3 5.75V4.75C3 3.784 3.784 3 4.75 3ZM2.75 10C2.75 9.66848 2.8817 9.35054 3.11612 9.11612C3.35054 8.8817 3.66848 8.75 4 8.75C4.33152 8.75 4.64946 8.8817 4.88388 9.11612C5.1183 9.35054 5.25 9.66848 5.25 10C5.25 10.3315 5.1183 10.6495 4.88388 10.8839C4.64946 11.1183 4.33152 11.25 4 11.25C3.66848 11.25 3.35054 11.1183 3.11612 10.8839C2.8817 10.6495 2.75 10.3315 2.75 10ZM7.5 8.75C7.83152 8.75 8.14946 8.8817 8.38388 9.11612C8.6183 9.35054 8.75 9.66848 8.75 10C8.75 10.3315 8.6183 10.6495 8.38388 10.8839C8.14946 11.1183 7.83152 11.25 7.5 11.25C7.16848 11.25 6.85054 11.1183 6.61612 10.8839C6.3817 10.6495 6.25 10.3315 6.25 10C6.25 9.66848 6.3817 9.35054 6.61612 9.11612C6.85054 8.8817 7.16848 8.75 7.5 8.75ZM7.5 12.25C7.83152 12.25 8.14946 12.3817 8.38388 12.6161C8.6183 12.8505 8.75 13.1685 8.75 13.5C8.75 13.8315 8.6183 14.1495 8.38388 14.3839C8.14946 14.6183 7.83152 14.75 7.5 14.75C7.16848 14.75 6.85054 14.6183 6.61612 14.3839C6.3817 14.1495 6.25 13.8315 6.25 13.5C6.25 13.1685 6.3817 12.8505 6.61612 12.6161C6.85054 12.3817 7.16848 12.25 7.5 12.25ZM4 12.25C4.33152 12.25 4.64946 12.3817 4.88388 12.6161C5.1183 12.8505 5.25 13.1685 5.25 13.5C5.25 13.8315 5.1183 14.1495 4.88388 14.3839C4.64946 14.6183 4.33152 14.75 4 14.75C3.66848 14.75 3.35054 14.6183 3.11612 14.3839C2.8817 14.1495 2.75 13.8315 2.75 13.5C2.75 13.1685 2.8817 12.8505 3.11612 12.6161C3.35054 12.3817 3.66848 12.25 4 12.25ZM9.75 10C9.75 9.66848 9.8817 9.35054 10.1161 9.11612C10.3505 8.8817 10.6685 8.75 11 8.75C11.3315 8.75 11.6495 8.8817 11.8839 9.11612C12.1183 9.35054 12.25 9.66848 12.25 10C12.25 10.3315 12.1183 10.6495 11.8839 10.8839C11.6495 11.1183 11.3315 11.25 11 11.25C10.6685 11.25 10.3505 11.1183 10.1161 10.8839C9.8817 10.6495 9.75 10.3315 9.75 10ZM11 12.25C11.3315 12.25 11.6495 12.3817 11.8839 12.6161C12.1183 12.8505 12.25 13.1685 12.25 13.5C12.25 13.8315 12.1183 14.1495 11.8839 14.3839C11.6495 14.6183 11.3315 14.75 11 14.75C10.6685 14.75 10.3505 14.6183 10.1161 14.3839C9.8817 14.1495 9.75 13.8315 9.75 13.5C9.75 13.1685 9.8817 12.8505 10.1161 12.6161C10.3505 12.3817 10.6685 12.25 11 12.25ZM2.8 18.487C3.02934 18.9424 3.38074 19.325 3.81497 19.5922C4.2492 19.8593 4.74916 20.0005 5.259 20H12.251C15.151 20 17.501 17.65 17.501 14.75V5.25C17.5011 4.74039 17.3595 4.24079 17.0922 3.80693C16.8249 3.37308 16.4422 3.02205 15.987 2.793C15.997 2.906 16.001 3.021 16.001 3.137V14.75C16.001 15.7446 15.6059 16.6984 14.9027 17.4017C14.1994 18.1049 13.2456 18.5 12.251 18.5H3.137C3.02488 18.4997 2.91281 18.4954 2.801 18.487H2.8Z" fill="#FAC153"/>
</svg>
