<svg width="32" height="32" viewBox="0 0 32 32" fill="none" xmlns="http://www.w3.org/2000/svg">
<path d="M16 32C7.163 32 0 24.837 0 16C0 7.163 7.163 0 16 0C24.837 0 32 7.163 32 16C32 24.837 24.837 32 16 32ZM12.116 14.404L16 10.52L19.886 14.406L22.146 12.146L16 6L9.856 12.144L12.116 14.404ZM6 16L8.26 18.26L10.52 16L8.26 13.74L6 16ZM12.116 17.596L9.853 19.853L9.856 19.856L16 26L22.146 19.854V19.853L19.886 17.593L16 21.48L12.116 17.596ZM21.48 16L23.74 18.26L26 16L23.74 13.74L21.48 16ZM18.292 15.998H18.293L16 13.706L14.305 15.4L14.11 15.595L13.709 15.997L13.705 16L13.709 16.003L15.999 18.294L18.293 16.001L18.294 16L18.292 15.999V15.998Z" fill="#F0B90B"/>
</svg>
