<svg width="27" height="27" viewBox="0 0 27 27" fill="none" xmlns="http://www.w3.org/2000/svg">
<path fill-rule="evenodd" clip-rule="evenodd" d="M26.7857 13.5C26.7857 20.837 20.837 26.7857 13.5 26.7857C6.16297 26.7857 0.214294 20.837 0.214294 13.5C0.214294 6.16297 6.16297 0.214294 13.5 0.214294C20.837 0.214294 26.7857 6.16297 26.7857 13.5ZM13.9761 10.0225C12.684 10.5594 10.1011 11.6721 6.22829 13.3594C5.59944 13.6096 5.26951 13.8543 5.23962 14.0934C5.18869 14.4987 5.69576 14.6581 6.3844 14.874C6.47851 14.9039 6.57594 14.9338 6.67558 14.967C7.35426 15.1873 8.26654 15.4453 8.7404 15.4552C9.17108 15.4641 9.65158 15.2869 10.1819 14.9238C13.8 12.4803 15.6678 11.2459 15.7852 11.2193C15.8682 11.2005 15.9833 11.1761 16.0608 11.2459C16.1383 11.3145 16.1306 11.4452 16.1228 11.4806C16.0719 11.6943 14.0857 13.5421 13.056 14.4987C12.735 14.7965 12.508 15.0079 12.4615 15.0567C12.3574 15.164 12.2512 15.267 12.1493 15.3655C11.5182 15.9723 11.0466 16.4284 12.1759 17.1724C12.7184 17.53 13.1524 17.8256 13.5853 18.1201C14.058 18.4423 14.5297 18.7634 15.1408 19.1642C15.2958 19.266 15.4442 19.3712 15.5892 19.4741C16.1394 19.8672 16.6343 20.2193 17.2455 20.1639C17.5998 20.1307 17.9673 19.7974 18.1533 18.8021C18.5929 16.4483 19.4587 11.351 19.659 9.24969C19.6712 9.07522 19.6638 8.89993 19.6369 8.72712C19.6208 8.58754 19.5528 8.45911 19.4465 8.36729C19.2882 8.23776 19.0424 8.21008 18.9317 8.21229C18.4323 8.22115 17.6662 8.48797 13.9761 10.0225Z" fill="#E7E7E7"/>
</svg>
