<svg width="28" height="28" viewBox="0 0 28 28" fill="none" xmlns="http://www.w3.org/2000/svg">
<path d="M14 0C6.26875 0 0 6.26875 0 14C0 21.7313 6.26875 28 14 28C21.7313 28 28 21.7313 28 14C28 6.26875 21.7313 0 14 0ZM22 7.92813L20.725 9.15C20.6125 9.23438 20.5594 9.37188 20.5812 9.50625V18.4969C20.5594 18.6344 20.6125 18.7719 20.725 18.8531L21.975 20.075V20.3469H15.7V20.0875L16.9906 18.8344C17.1187 18.7063 17.1187 18.6687 17.1187 18.4781V11.2031L13.525 20.3156H13.0406L8.85938 11.2031V17.3125C8.82187 17.5688 8.9125 17.8281 9.09375 18.0125L10.775 20.0469V20.3188H6V20.0469L7.68125 18.0125C7.76983 17.921 7.83575 17.81 7.87374 17.6885C7.91173 17.5669 7.92072 17.4382 7.9 17.3125V10.25C7.92187 10.0531 7.84687 9.8625 7.69687 9.72812L6.20312 7.92813V7.65625H10.8438L14.425 15.5156L17.5781 7.6625H22V7.92813Z" fill="#E7E7E7"/>
</svg>
