<svg width="28" height="22" viewBox="0 0 28 22" fill="none" xmlns="http://www.w3.org/2000/svg">
<path d="M17.76 0.679993C17.4952 1.15424 17.2592 1.64402 17.0533 2.14666C15.0304 1.82673 12.9697 1.82673 10.9467 2.14666C10.7408 1.64402 10.5048 1.15424 10.24 0.679993C8.3344 1.00559 6.48188 1.58871 4.73335 2.41333C1.6066 6.92571 0.188595 12.4039 0.733345 17.8667C2.771 19.3985 5.05796 20.5668 7.49334 21.32C8.0479 20.5875 8.54281 19.8116 8.97334 19C8.17878 18.707 7.41507 18.3363 6.69334 17.8933C6.89129 17.7616 7.07854 17.6145 7.25334 17.4533C9.35796 18.4671 11.664 18.9935 14 18.9935C16.3361 18.9935 18.6421 18.4671 20.7467 17.4533C20.9333 17.6133 21.12 17.76 21.3067 17.8933C20.581 18.3329 19.8181 18.7076 19.0267 19.0133C19.4394 19.8434 19.921 20.6373 20.4667 21.3867C22.899 20.636 25.182 19.4674 27.2133 17.9333C27.7712 12.4696 26.352 6.9869 23.2133 2.47999C21.4844 1.63831 19.6502 1.03289 17.76 0.679993ZM9.57334 14.7467C8.90612 14.6988 8.2834 14.3942 7.83591 13.897C7.38841 13.3998 7.15094 12.7486 7.17334 12.08C7.14756 11.4105 7.38386 10.7574 7.83203 10.2595C8.28019 9.76151 8.90489 9.45795 9.57334 9.41333C10.2418 9.45795 10.8665 9.76151 11.3147 10.2595C11.7628 10.7574 11.9991 11.4105 11.9733 12.08C11.9991 12.7494 11.7628 13.4025 11.3147 13.9005C10.8665 14.3985 10.2418 14.702 9.57334 14.7467ZM18.4267 14.7467C17.7595 14.6988 17.1367 14.3942 16.6892 13.897C16.2417 13.3998 16.0043 12.7486 16.0267 12.08C16.0009 11.4105 16.2372 10.7574 16.6854 10.2595C17.1335 9.76151 17.7582 9.45795 18.4267 9.41333C19.0964 9.45462 19.7231 9.75719 20.1719 10.2559C20.6208 10.7546 20.8559 11.4097 20.8267 12.08C20.8559 12.7503 20.6208 13.4053 20.1719 13.9041C19.7231 14.4028 19.0964 14.7054 18.4267 14.7467Z" fill="#E7E7E7"/>
</svg>
